# File created by Blade
# Date/Time:  Wed Apr 08 17:04:22 2015
# Frame Rate: 120.000 fps
#------------------------------------------------------
:FULLY-SPECIFIED
:DEGREES
1877
root 3.501442 36.239546 2.466365 -140.741969 -86.888049 166.333792
Spine -25.161465 0.792410 -4.300028
Head 10.807853 9.335169 3.533726
LeftShoulder -6.179793 12.040661 30.926625
LeftArm 11.186356 -35.998505 -34.167606
LeftForeArm 23.120874 0.000000 2.797146
LeftHand -11.609575 -0.000000 -13.145706
LeftHandThumb1 -26.253704 0.000000 33.147579
RightShoulder -20.876865 -42.310051 -17.006657
RightArm 49.772501 45.095996 47.341089
RightForeArm 4.695114 -0.000000 -1.356906
RightHand -1.784729 -0.000000 16.183553
RightHandThumb1 -24.326973 -0.000000 -32.862282
LeftUpLeg -25.899224 10.763651 0.703509
LeftLeg 12.093618 -0.000000 -0.000000
LeftFoot -11.672201 7.882783 -14.842430
LeftToeBase 8.130749 -0.000000 -0.000000
RightUpLeg -26.376404 -6.230116 -5.421380
RightLeg 10.487801 -0.000000 -0.000000
RightFoot -11.574734 -1.359309 19.356622
RightToeBase 13.991179 -0.000000 -0.000000
1878
root 3.504764 36.239269 2.466775 -140.685870 -86.882842 166.277079
Spine -25.152416 0.797271 -4.297871
Head 10.771865 9.336245 3.526233
LeftShoulder -6.175441 12.035078 30.935687
LeftArm 11.204614 -36.033860 -34.204973
LeftForeArm 23.070000 -0.000000 2.786964
LeftHand -11.476655 -0.000000 -13.235651
LeftHandThumb1 -26.253704 0.000000 33.147579
RightShoulder -20.866682 -42.320907 -17.018600
RightArm 49.786461 45.094758 47.344189
RightForeArm 4.713363 0.000000 -1.368879
RightHand -1.648052 -0.000000 16.103150
RightHandThumb1 -24.326973 -0.000000 -32.862282
LeftUpLeg -25.915379 10.772667 0.692022
LeftLeg 12.112038 -0.000000 -0.000000
LeftFoot -11.670335 7.885564 -14.845548
LeftToeBase 8.128834 -0.000000 -0.000000
RightUpLeg -26.385961 -6.243230 -5.419045
RightLeg 10.493328 -0.000000 -0.000000
RightFoot -11.572691 -1.350310 19.347936
RightToeBase 13.983853 -0.000000 -0.000000
1879
root 3.507931 36.239056 2.466137 -140.649795 -86.874053 166.243371
Spine -25.148586 0.801474 -4.297822
Head 10.738018 9.355818 3.513605
LeftShoulder -6.159423 12.025044 30.940184
LeftArm 11.180047 -36.039548 -34.201230
LeftForeArm 23.040311 -0.000000 2.785048
LeftHand -11.461523 -0.000000 -13.241650
LeftHandThumb1 -26.253704 0.000000 33.147579
RightShoulder -20.843885 -42.328453 -17.039998
RightArm 49.801085 45.096230 47.357232
RightForeArm 4.731029 -0.000000 -1.380716
RightHand -1.638914 -0.000000 16.111364
RightHandThumb1 -24.326973 -0.000000 -32.862282
LeftUpLeg -25.928148 10.782218 0.683960
LeftLeg 12.121999 -0.000000 -0.000000
LeftFoot -11.665553 7.885267 -14.822246
LeftToeBase 8.127115 -0.000000 -0.000000
RightUpLeg -26.400072 -6.230278 -5.426482
RightLeg 10.503916 -0.000000 -0.000000
RightFoot -11.581043 -1.356622 19.362915
RightToeBase 13.995912 -0.000000 -0.000000
1880
root 3.511396 36.238384 2.466126 -140.523601 -86.870929 166.117811
Spine -25.144025 0.799179 -4.299364
Head 10.714896 9.349637 3.502918
LeftShoulder -6.148496 12.008832 30.943726
LeftArm 11.182700 -36.061947 -34.206981
LeftForeArm 23.052417 -0.000000 2.748531
LeftHand -11.467607 -0.000000 -13.219310
LeftHandThumb1 -26.253704 0.000000 33.147579
RightShoulder -20.826052 -42.337102 -17.063467
RightArm 49.824065 45.096195 47.373773
RightForeArm 4.694071 -0.000000 -1.396624
RightHand -1.595495 0.000000 16.090010
RightHandThumb1 -24.326973 -0.000000 -32.862282
LeftUpLeg -25.939417 10.776190 0.677507
LeftLeg 12.131432 -0.000000 -0.000000
LeftFoot -11.666999 7.884473 -14.830854
LeftToeBase 8.115738 -0.000000 -0.000000
RightUpLeg -26.413157 -6.233615 -5.432753
RightLeg 10.518511 -0.000000 -0.000000
RightFoot -11.591794 -1.356074 19.348979
RightToeBase 13.998010 -0.000000 -0.000000
1881
root 3.514335 36.237900 2.466429 -140.443619 -86.861711 166.037734
Spine -25.138683 0.804211 -4.300744
Head 10.679099 9.375685 3.511117
LeftShoulder -6.135415 12.004465 30.939986
LeftArm 11.174966 -36.078035 -34.203109
LeftForeArm 23.065228 0.000000 2.733268
LeftHand -11.470661 -0.000000 -13.209682
LeftHandThumb1 -26.253704 0.000000 33.147579
RightShoulder -20.810650 -42.333235 -17.085753
RightArm 49.837800 45.088759 47.378386
RightForeArm 4.689015 0.000000 -1.410791
RightHand -1.601736 -0.000000 16.091064
RightHandThumb1 -24.326973 -0.000000 -32.862282
LeftUpLeg -25.946028 10.777911 0.668938
LeftLeg 12.138080 -0.000000 -0.000000
LeftFoot -11.669994 7.891869 -14.828560
LeftToeBase 8.121376 -0.000000 -0.000000
RightUpLeg -26.429002 -6.219298 -5.446486
RightLeg 10.538939 -0.000000 -0.000000
RightFoot -11.605359 -1.357018 19.358848
RightToeBase 13.999021 -0.000000 -0.000000
1882
root 3.517218 36.237509 2.467980 -140.295705 -86.839536 165.895667
Spine -25.145242 0.818572 -4.308347
Head 10.665297 9.389311 3.472489
LeftShoulder -6.116263 12.020341 30.914334
LeftArm 11.162404 -36.052957 -34.163740
LeftForeArm 23.065511 -0.000000 2.714483
LeftHand -11.573946 0.000000 -13.091074
LeftHandThumb1 -26.253704 0.000000 33.147579
RightShoulder -20.777624 -42.312606 -17.126544
RightArm 49.831785 45.088658 47.378794
RightForeArm 4.661058 -0.000000 -1.420482
RightHand -1.695493 -0.000000 16.123446
RightHandThumb1 -24.326973 -0.000000 -32.862282
LeftUpLeg -25.950776 10.780407 0.653976
LeftLeg 12.130687 -0.000000 -0.000000
LeftFoot -11.652742 7.889951 -14.777410
LeftToeBase 8.131607 -0.000000 -0.000000
RightUpLeg -26.458672 -6.219273 -5.465349
RightLeg 10.567922 -0.000000 -0.000000
RightFoot -11.610607 -1.332520 19.370479
RightToeBase 14.005029 -0.000000 -0.000000
1883
root 3.520334 36.237300 2.468961 -140.066536 -86.836236 165.672363
Spine -25.149568 0.815967 -4.313280
Head 10.634369 9.406233 3.476788
LeftShoulder -6.089608 12.017556 30.917904
LeftArm 11.142039 -36.036262 -34.160472
LeftForeArm 23.046060 -0.000000 2.714289
LeftHand -11.554903 -0.000000 -13.160918
LeftHandThumb1 -26.253704 0.000000 33.147579
RightShoulder -20.761028 -42.310159 -17.145950
RightArm 49.837327 45.100116 47.387899
RightForeArm 4.613322 -0.000000 -1.406256
RightHand -1.568982 -0.000000 16.209647
RightHandThumb1 -24.326973 -0.000000 -32.862282
LeftUpLeg -25.966203 10.765820 0.638781
LeftLeg 12.139634 -0.000000 -0.000000
LeftFoot -11.667438 7.902980 -14.854890
LeftToeBase 8.145895 -0.000000 -0.000000
RightUpLeg -26.479221 -6.225780 -5.478401
RightLeg 10.588950 -0.000000 -0.000000
RightFoot -11.619357 -1.326446 19.364073
RightToeBase 14.016989 -0.000000 -0.000000
1884
root 3.523014 36.237098 2.468316 -139.945585 -86.836219 165.553751
Spine -25.151034 0.816674 -4.308285
Head 10.620405 9.421305 3.428975
LeftShoulder -6.071082 12.046007 30.896649
LeftArm 11.139638 -36.041465 -34.151747
LeftForeArm 23.053991 -0.000000 2.737761
LeftHand -11.583490 -0.000000 -13.121811
LeftHandThumb1 -26.253704 0.000000 33.147579
RightShoulder -20.741435 -42.305365 -17.180695
RightArm 49.794939 45.051903 47.329945
RightForeArm 4.689000 -0.000000 -1.402631
RightHand -1.672955 -0.000000 16.202731
RightHandThumb1 -24.326973 -0.000000 -32.862282
LeftUpLeg -25.973034 10.776334 0.627162
LeftLeg 12.133931 -0.000000 -0.000000
LeftFoot -11.655782 7.893471 -14.855604
LeftToeBase 8.124953 -0.000000 -0.000000
RightUpLeg -26.494786 -6.213019 -5.489833
RightLeg 10.608575 -0.000000 -0.000000
RightFoot -11.630792 -1.332844 19.387531
RightToeBase 14.004881 -0.000000 -0.000000
1885
root 3.525582 36.236911 2.469019 -139.853022 -86.838822 165.463499
Spine -25.153115 0.815686 -4.298926
Head 10.588345 9.442547 3.416394
LeftShoulder -6.054857 12.061742 30.881014
LeftArm 11.135069 -36.008648 -34.145850
LeftForeArm 23.040987 -0.000000 2.754329
LeftHand -11.616528 -0.000000 -13.077260
LeftHandThumb1 -26.253704 0.000000 33.147579
RightShoulder -20.729445 -42.310924 -17.203429
RightArm 49.800942 45.061232 47.340993
RightForeArm 4.667504 -0.000000 -1.362176
RightHand -1.714495 -0.000000 16.243393
RightHandThumb1 -24.326973 -0.000000 -32.862282
LeftUpLeg -25.980694 10.771848 0.623309
LeftLeg 12.136451 -0.000000 -0.000000
LeftFoot -11.655999 7.890813 -14.855721
LeftToeBase 8.152274 -0.000000 -0.000000
RightUpLeg -26.504971 -6.218622 -5.492874
RightLeg 10.616532 -0.000000 -0.000000
RightFoot -11.628485 -1.333920 19.386370
RightToeBase 14.001164 -0.000000 -0.000000
1886
root 3.528552 36.236861 2.469475 -139.782887 -86.854577 165.414191
Spine -25.177939 0.801756 -4.270656
Head 10.567382 9.460818 3.385999
LeftShoulder -6.041513 12.078691 30.852426
LeftArm 11.122435 -35.994589 -34.125820
LeftForeArm 23.048709 -0.000000 2.765577
LeftHand -11.596270 -0.000000 -13.041986
LeftHandThumb1 -26.253704 0.000000 33.147579
RightShoulder -20.688420 -42.307027 -17.269397
RightArm 49.798559 45.052217 47.363850
RightForeArm 4.671859 -0.000000 -1.350105
RightHand -1.696345 -0.000000 16.214154
RightHandThumb1 -24.326973 -0.000000 -32.862282
LeftUpLeg -26.005853 10.732366 0.641668
LeftLeg 12.136268 -0.000000 -0.000000
LeftFoot -11.653334 7.902880 -14.814751
LeftToeBase 8.173333 -0.000000 -0.000000
RightUpLeg -26.532436 -6.224148 -5.487010
RightLeg 10.626879 -0.000000 -0.000000
RightFoot -11.635090 -1.339536 19.393984
RightToeBase 13.986545 -0.000000 -0.000000
